<?xml version="1.0" encoding="UTF-8" standalone="no"?>
<!DOCTYPE svg PUBLIC "-//W3C//DTD SVG 1.1//EN"
 "http://www.w3.org/Graphics/SVG/1.1/DTD/svg11.dtd">
<!-- Generated by graphviz version 2.48.0 (20210717.1556)
 -->
<!-- Title: G Pages: 1 -->
<svg width="219pt" height="305pt"
 viewBox="0.00 0.00 219.00 305.00" xmlns="http://www.w3.org/2000/svg" xmlns:xlink="http://www.w3.org/1999/xlink">
<g id="graph0" class="graph" transform="scale(1 1) rotate(0) translate(4 301)">
<title>G</title>
<polygon fill="white" stroke="transparent" points="-4,4 -4,-301 215,-301 215,4 -4,4"/>
<!-- 0 -->
<g id="node1" class="node">
<title>0</title>
<text text-anchor="middle" x="108.5" y="-275.3" font-family="Times,serif" font-size="14.00">0 (None)</text>
</g>
<!-- 5 -->
<g id="node2" class="node">
<title>5</title>
<text text-anchor="middle" x="108.5" y="-188.3" font-family="Times,serif" font-size="14.00">5 (doing)</text>
</g>
<!-- 0&#45;&gt;5 -->
<g id="edge1" class="edge">
<title>0&#45;&gt;5</title>
<path fill="none" stroke="black" d="M108.5,-260.8C108.5,-249.16 108.5,-233.55 108.5,-220.24"/>
<polygon fill="black" stroke="black" points="112,-220.18 108.5,-210.18 105,-220.18 112,-220.18"/>
<text text-anchor="middle" x="120" y="-231.8" font-family="Times,serif" font-size="14.00">root</text>
</g>
<!-- 2 -->
<g id="node4" class="node">
<title>2</title>
<text text-anchor="middle" x="33.5" y="-101.3" font-family="Times,serif" font-size="14.00">2 (how)</text>
</g>
<!-- 5&#45;&gt;2 -->
<g id="edge4" class="edge">
<title>5&#45;&gt;2</title>
<path fill="none" stroke="black" d="M78.99,-173.96C71.7,-168.82 64.31,-162.74 58.5,-156 52.49,-149.03 47.49,-140.36 43.6,-132.2"/>
<polygon fill="black" stroke="black" points="46.77,-130.73 39.52,-123 40.37,-133.56 46.77,-130.73"/>
<text text-anchor="middle" x="81.5" y="-144.8" font-family="Times,serif" font-size="14.00">advmod</text>
</g>
<!-- 3 -->
<g id="node5" class="node">
<title>3</title>
<text text-anchor="middle" x="108.5" y="-101.3" font-family="Times,serif" font-size="14.00">3 (are)</text>
</g>
<!-- 5&#45;&gt;3 -->
<g id="edge3" class="edge">
<title>5&#45;&gt;3</title>
<path fill="none" stroke="black" d="M108.5,-173.8C108.5,-162.16 108.5,-146.55 108.5,-133.24"/>
<polygon fill="black" stroke="black" points="112,-133.18 108.5,-123.18 105,-133.18 112,-133.18"/>
<text text-anchor="middle" x="119" y="-144.8" font-family="Times,serif" font-size="14.00">aux</text>
</g>
<!-- 4 -->
<g id="node6" class="node">
<title>4</title>
<text text-anchor="middle" x="182.5" y="-101.3" font-family="Times,serif" font-size="14.00">4 (you)</text>
</g>
<!-- 5&#45;&gt;4 -->
<g id="edge5" class="edge">
<title>5&#45;&gt;4</title>
<path fill="none" stroke="black" d="M123.48,-173.8C134.21,-161.47 148.83,-144.68 160.83,-130.89"/>
<polygon fill="black" stroke="black" points="163.62,-133.02 167.55,-123.18 158.34,-128.42 163.62,-133.02"/>
<text text-anchor="middle" x="165" y="-144.8" font-family="Times,serif" font-size="14.00">nsubj</text>
</g>
<!-- 1 -->
<g id="node3" class="node">
<title>1</title>
<text text-anchor="middle" x="33.5" y="-14.3" font-family="Times,serif" font-size="14.00">1 (Hello)</text>
</g>
<!-- 2&#45;&gt;1 -->
<g id="edge2" class="edge">
<title>2&#45;&gt;1</title>
<path fill="none" stroke="black" d="M33.5,-86.8C33.5,-75.16 33.5,-59.55 33.5,-46.24"/>
<polygon fill="black" stroke="black" points="37,-46.18 33.5,-36.18 30,-46.18 37,-46.18"/>
<text text-anchor="middle" x="56.5" y="-57.8" font-family="Times,serif" font-size="14.00">advmod</text>
</g>
</g>
</svg>
