<?xml version="1.0" encoding="UTF-8" standalone="no"?><!DOCTYPE svg PUBLIC "-//W3C//DTD SVG 1.1//EN" "http://www.w3.org/Graphics/SVG/1.1/DTD/svg11.dtd"><!-- Generated by graphviz version 2.40.1 (20161225.0304)
 --><!-- Title: G Pages: 1 --><svg xmlns="http://www.w3.org/2000/svg" xmlns:xlink="http://www.w3.org/1999/xlink" width="442pt" height="332pt" viewBox="0.00 0.00 441.79 332.00">
<g id="graph0" class="graph" transform="scale(1 1) rotate(0) translate(4 328)">
<title>G</title>
<polygon fill="#ffffff" stroke="transparent" points="-4,4 -4,-328 437.7898,-328 437.7898,4 -4,4"/>
<!-- _ -->
<g id="node1" class="node">
<title>_</title>
<text text-anchor="middle" x="209" y="-301.8" font-family="Times,serif" font-size="14.00" fill="#000000">{}</text>
</g>
<!-- x -->
<g id="node2" class="node">
<title>x</title>
<text text-anchor="middle" x="101" y="-229.8" font-family="Times,serif" font-size="14.00" fill="#000000">{x}</text>
</g>
<!-- _&#45;&gt;x -->
<g id="edge1" class="edge">
<title>_-&gt;x</title>
<path fill="none" stroke="#000000" d="M181.747,-287.8314C168.0611,-278.7074 151.3085,-267.539 136.6173,-257.7449"/>
<polygon fill="#000000" stroke="#000000" points="138.5062,-254.7977 128.2442,-252.1628 134.6233,-260.6221 138.5062,-254.7977"/>
</g>
<!-- y -->
<g id="node3" class="node">
<title>y</title>
<text text-anchor="middle" x="173" y="-229.8" font-family="Times,serif" font-size="14.00" fill="#000000">{y}</text>
</g>
<!-- _&#45;&gt;y -->
<g id="edge2" class="edge">
<title>_-&gt;y</title>
<path fill="none" stroke="#000000" d="M199.9157,-287.8314C195.9385,-279.8771 191.1845,-270.369 186.7861,-261.5723"/>
<polygon fill="#000000" stroke="#000000" points="189.8093,-259.7923 182.2066,-252.4133 183.5483,-262.9228 189.8093,-259.7923"/>
</g>
<!-- ny -->
<g id="node4" class="node">
<title>ny</title>
<text text-anchor="middle" x="319" y="-229.8" font-family="Times,serif" font-size="14.00" fill="#000000">{¬y}</text>
</g>
<!-- _&#45;&gt;ny -->
<g id="edge3" class="edge">
<title>_-&gt;ny</title>
<path fill="none" stroke="#000000" d="M236.191,-288.2022C250.3378,-278.9425 267.8157,-267.5025 283.063,-257.5224"/>
<polygon fill="#000000" stroke="#000000" points="285.2903,-260.2476 291.7406,-251.8425 281.4567,-254.3907 285.2903,-260.2476"/>
</g>
<!-- nx -->
<g id="node5" class="node">
<title>nx</title>
<text text-anchor="middle" x="245" y="-229.8" font-family="Times,serif" font-size="14.00" fill="#000000">{¬x}</text>
</g>
<!-- _&#45;&gt;nx -->
<g id="edge4" class="edge">
<title>_-&gt;nx</title>
<path fill="none" stroke="#000000" d="M218.0843,-287.8314C222.0615,-279.8771 226.8155,-270.369 231.2139,-261.5723"/>
<polygon fill="#000000" stroke="#000000" points="234.4517,-262.9228 235.7934,-252.4133 228.1907,-259.7923 234.4517,-262.9228"/>
</g>
<!-- xy -->
<g id="node6" class="node">
<title>xy</title>
<text text-anchor="middle" x="27" y="-157.8" font-family="Times,serif" font-size="14.00" fill="#000000">{x,y}</text>
</g>
<!-- x&#45;&gt;xy -->
<g id="edge5" class="edge">
<title>x-&gt;xy</title>
<path fill="none" stroke="#000000" d="M82.3267,-215.8314C73.4751,-207.219 62.7514,-196.7851 53.1105,-187.4048"/>
<polygon fill="#000000" stroke="#000000" points="55.2754,-184.6279 45.6674,-180.1628 50.3939,-189.645 55.2754,-184.6279"/>
</g>
<!-- xnx -->
<g id="node7" class="node">
<title>xnx</title>
<text text-anchor="middle" x="100" y="-157.8" font-family="Times,serif" font-size="14.00" fill="#000000">{x,¬x}</text>
</g>
<!-- x&#45;&gt;xnx -->
<g id="edge6" class="edge">
<title>x-&gt;xnx</title>
<path fill="none" stroke="#000000" d="M100.7477,-215.8314C100.6407,-208.131 100.5135,-198.9743 100.3947,-190.4166"/>
<polygon fill="#000000" stroke="#000000" points="103.8944,-190.3637 100.2557,-180.4133 96.8951,-190.4609 103.8944,-190.3637"/>
</g>
<!-- xny -->
<g id="node8" class="node">
<title>xny</title>
<text text-anchor="middle" x="248" y="-157.8" font-family="Times,serif" font-size="14.00" fill="#000000">{x,¬y}</text>
</g>
<!-- x&#45;&gt;xny -->
<g id="edge7" class="edge">
<title>x-&gt;xny</title>
<path fill="none" stroke="#000000" d="M128.1111,-220.405C131.1081,-218.9139 134.1172,-217.4219 137,-216 140.6795,-214.1852 179.6858,-195.214 210.4322,-180.2642"/>
<polygon fill="#000000" stroke="#000000" points="212.1979,-183.2975 219.6608,-175.7772 209.137,-177.0022 212.1979,-183.2975"/>
</g>
<!-- y&#45;&gt;xy -->
<g id="edge8" class="edge">
<title>y-&gt;xy</title>
<path fill="none" stroke="#000000" d="M145.8889,-220.405C142.8919,-218.9139 139.8828,-217.4219 137,-216 106.7612,-201.0854 97.2624,-196.8242 63.3002,-180.1231"/>
<polygon fill="#000000" stroke="#000000" points="64.6283,-176.8757 54.1111,-175.595 61.5341,-183.1548 64.6283,-176.8757"/>
</g>
<!-- yny -->
<g id="node9" class="node">
<title>yny</title>
<text text-anchor="middle" x="322" y="-157.8" font-family="Times,serif" font-size="14.00" fill="#000000">{y,¬y}</text>
</g>
<!-- y&#45;&gt;yny -->
<g id="edge9" class="edge">
<title>y-&gt;yny</title>
<path fill="none" stroke="#000000" d="M200.0963,-220.3747C203.096,-218.8893 206.1099,-217.4068 209,-216 239.9802,-200.9196 249.7945,-196.7958 284.3787,-180.2715"/>
<polygon fill="#000000" stroke="#000000" points="286.2273,-183.2668 293.7329,-175.789 283.2023,-176.9541 286.2273,-183.2668"/>
</g>
<!-- ynx -->
<g id="node10" class="node">
<title>ynx</title>
<text text-anchor="middle" x="174" y="-157.8" font-family="Times,serif" font-size="14.00" fill="#000000">{y,¬x}</text>
</g>
<!-- y&#45;&gt;ynx -->
<g id="edge10" class="edge">
<title>y-&gt;ynx</title>
<path fill="none" stroke="#000000" d="M173.2523,-215.8314C173.3593,-208.131 173.4865,-198.9743 173.6053,-190.4166"/>
<polygon fill="#000000" stroke="#000000" points="177.1049,-190.4609 173.7443,-180.4133 170.1056,-190.3637 177.1049,-190.4609"/>
</g>
<!-- ny&#45;&gt;xny -->
<g id="edge15" class="edge">
<title>ny-&gt;xny</title>
<path fill="none" stroke="#000000" d="M301.0837,-215.8314C292.6558,-207.2848 282.459,-196.9443 273.264,-187.6198"/>
<polygon fill="#000000" stroke="#000000" points="275.6711,-185.0761 266.1575,-180.4133 270.6869,-189.9912 275.6711,-185.0761"/>
</g>
<!-- ny&#45;&gt;yny -->
<g id="edge16" class="edge">
<title>ny-&gt;yny</title>
<path fill="none" stroke="#000000" d="M319.757,-215.8314C320.0779,-208.131 320.4594,-198.9743 320.816,-190.4166"/>
<polygon fill="#000000" stroke="#000000" points="324.3133,-190.5503 321.2328,-180.4133 317.3194,-190.2589 324.3133,-190.5503"/>
</g>
<!-- nxy -->
<g id="node11" class="node">
<title>nxy</title>
<text text-anchor="middle" x="401" y="-157.8" font-family="Times,serif" font-size="14.00" fill="#000000">{¬x,¬y}</text>
</g>
<!-- ny&#45;&gt;nxy -->
<g id="edge14" class="edge">
<title>ny-&gt;nxy</title>
<path fill="none" stroke="#000000" d="M339.6921,-215.8314C349.6948,-207.0485 361.855,-196.3712 372.6999,-186.8489"/>
<polygon fill="#000000" stroke="#000000" points="375.1094,-189.3909 380.3146,-180.1628 370.4908,-184.1308 375.1094,-189.3909"/>
</g>
<!-- nx&#45;&gt;xnx -->
<g id="edge12" class="edge">
<title>nx-&gt;xnx</title>
<path fill="none" stroke="#000000" d="M217.8785,-220.4259C214.8835,-218.9309 211.8776,-217.4322 209,-216 185.2267,-204.1679 158.5103,-190.9313 137.4774,-180.5245"/>
<polygon fill="#000000" stroke="#000000" points="138.7597,-177.254 128.2445,-175.9573 135.656,-183.5283 138.7597,-177.254"/>
</g>
<!-- nx&#45;&gt;ynx -->
<g id="edge13" class="edge">
<title>nx-&gt;ynx</title>
<path fill="none" stroke="#000000" d="M227.0837,-215.8314C218.6558,-207.2848 208.459,-196.9443 199.264,-187.6198"/>
<polygon fill="#000000" stroke="#000000" points="201.6711,-185.0761 192.1575,-180.4133 196.6869,-189.9912 201.6711,-185.0761"/>
</g>
<!-- nx&#45;&gt;nxy -->
<g id="edge11" class="edge">
<title>nx-&gt;nxy</title>
<path fill="none" stroke="#000000" d="M272.3777,-220.9788C275.9477,-219.2964 279.5588,-217.6023 283,-216 308.1979,-204.2671 336.515,-191.3011 359.0924,-181.0157"/>
<polygon fill="#000000" stroke="#000000" points="360.7397,-184.1115 368.3912,-176.7831 357.8397,-177.7404 360.7397,-184.1115"/>
</g>
<!-- xynx -->
<g id="node12" class="node">
<title>xynx</title>
<text text-anchor="middle" x="87" y="-85.8" font-family="Times,serif" font-size="14.00" fill="#000000">{x,y,¬x}</text>
</g>
<!-- xy&#45;&gt;xynx -->
<g id="edge17" class="edge">
<title>xy-&gt;xynx</title>
<path fill="none" stroke="#000000" d="M42.1405,-143.8314C49.1217,-135.454 57.5391,-125.3531 65.1876,-116.1749"/>
<polygon fill="#000000" stroke="#000000" points="67.9425,-118.3362 71.6556,-108.4133 62.5649,-113.8548 67.9425,-118.3362"/>
</g>
<!-- xyny -->
<g id="node13" class="node">
<title>xyny</title>
<text text-anchor="middle" x="172" y="-85.8" font-family="Times,serif" font-size="14.00" fill="#000000">{x,y,¬y}</text>
</g>
<!-- xy&#45;&gt;xyny -->
<g id="edge18" class="edge">
<title>xy-&gt;xyny</title>
<path fill="none" stroke="#000000" d="M54.1215,-148.4259C57.1165,-146.9309 60.1224,-145.4322 63,-144 84.8708,-133.1148 109.2326,-121.0408 129.3684,-111.0751"/>
<polygon fill="#000000" stroke="#000000" points="131.1799,-114.0838 138.5905,-106.5119 128.0755,-107.8098 131.1799,-114.0838"/>
</g>
<!-- xnx&#45;&gt;xynx -->
<g id="edge22" class="edge">
<title>xnx-&gt;xynx</title>
<path fill="none" stroke="#000000" d="M96.7196,-143.8314C95.3292,-136.131 93.6759,-126.9743 92.1308,-118.4166"/>
<polygon fill="#000000" stroke="#000000" points="95.5458,-117.6322 90.3246,-108.4133 88.6572,-118.8761 95.5458,-117.6322"/>
</g>
<!-- xnxy -->
<g id="node14" class="node">
<title>xnxy</title>
<text text-anchor="middle" x="261" y="-85.8" font-family="Times,serif" font-size="14.00" fill="#000000">{x,¬x,¬y}</text>
</g>
<!-- xnx&#45;&gt;xnxy -->
<g id="edge21" class="edge">
<title>xnx-&gt;xnxy</title>
<path fill="none" stroke="#000000" d="M128.2235,-148.1184C131.1789,-146.7101 134.1453,-145.3153 137,-144 162.1162,-132.428 190.3673,-120.0745 213.553,-110.1077"/>
<polygon fill="#000000" stroke="#000000" points="215.0144,-113.2893 222.8265,-106.1322 212.2563,-106.8555 215.0144,-113.2893"/>
</g>
<!-- xny&#45;&gt;xyny -->
<g id="edge20" class="edge">
<title>xny-&gt;xyny</title>
<path fill="none" stroke="#000000" d="M228.822,-143.8314C219.6412,-135.1337 208.4994,-124.5783 198.5224,-115.1265"/>
<polygon fill="#000000" stroke="#000000" points="200.8385,-112.4995 191.1719,-108.1628 196.0243,-117.5811 200.8385,-112.4995"/>
</g>
<!-- xny&#45;&gt;xnxy -->
<g id="edge19" class="edge">
<title>xny-&gt;xnxy</title>
<path fill="none" stroke="#000000" d="M251.2804,-143.8314C252.6708,-136.131 254.3241,-126.9743 255.8692,-118.4166"/>
<polygon fill="#000000" stroke="#000000" points="259.3428,-118.8761 257.6754,-108.4133 252.4542,-117.6322 259.3428,-118.8761"/>
</g>
<!-- yny&#45;&gt;xyny -->
<g id="edge24" class="edge">
<title>yny-&gt;xyny</title>
<path fill="none" stroke="#000000" d="M293.7281,-148.221C290.7822,-146.7927 287.8312,-145.3651 285,-144 261.7977,-132.8124 235.8705,-120.415 214.7093,-110.3234"/>
<polygon fill="#000000" stroke="#000000" points="216.1852,-107.1497 205.6522,-106.0061 213.1731,-113.4685 216.1852,-107.1497"/>
</g>
<!-- ynxy -->
<g id="node15" class="node">
<title>ynxy</title>
<text text-anchor="middle" x="355" y="-85.8" font-family="Times,serif" font-size="14.00" fill="#000000">{y,¬x,¬y}</text>
</g>
<!-- yny&#45;&gt;ynxy -->
<g id="edge23" class="edge">
<title>yny-&gt;ynxy</title>
<path fill="none" stroke="#000000" d="M330.3273,-143.8314C333.973,-135.8771 338.3309,-126.369 342.3627,-117.5723"/>
<polygon fill="#000000" stroke="#000000" points="345.5757,-118.9622 346.5606,-108.4133 339.2123,-116.0456 345.5757,-118.9622"/>
</g>
<!-- ynx&#45;&gt;xynx -->
<g id="edge26" class="edge">
<title>ynx-&gt;xynx</title>
<path fill="none" stroke="#000000" d="M152.0462,-143.8314C141.3305,-134.9632 128.2811,-124.1637 116.691,-114.5718"/>
<polygon fill="#000000" stroke="#000000" points="118.8822,-111.8422 108.9467,-108.1628 114.4192,-117.2349 118.8822,-111.8422"/>
</g>
<!-- ynx&#45;&gt;ynxy -->
<g id="edge25" class="edge">
<title>ynx-&gt;ynxy</title>
<path fill="none" stroke="#000000" d="M202.1509,-147.9549C205.1205,-146.5785 208.11,-145.2358 211,-144 250.5559,-127.0856 263.3383,-124.5101 307.2542,-108.2378"/>
<polygon fill="#000000" stroke="#000000" points="308.6527,-111.4516 316.7931,-104.6704 306.2006,-104.8951 308.6527,-111.4516"/>
</g>
<!-- nxy&#45;&gt;xnxy -->
<g id="edge27" class="edge">
<title>nxy-&gt;xnxy</title>
<path fill="none" stroke="#000000" d="M368.1762,-145.1192C349.3932,-135.4593 325.5793,-123.2122 305.1718,-112.7169"/>
<polygon fill="#000000" stroke="#000000" points="306.559,-109.4947 296.0654,-108.0336 303.3576,-115.7197 306.559,-109.4947"/>
</g>
<!-- nxy&#45;&gt;ynxy -->
<g id="edge28" class="edge">
<title>nxy-&gt;ynxy</title>
<path fill="none" stroke="#000000" d="M389.3923,-143.8314C384.2022,-135.7079 377.9768,-125.9637 372.2575,-117.0118"/>
<polygon fill="#000000" stroke="#000000" points="375.0974,-114.9559 366.764,-108.4133 369.1985,-118.7246 375.0974,-114.9559"/>
</g>
<!-- xynxy -->
<g id="node16" class="node">
<title>xynxy</title>
<text text-anchor="middle" x="216" y="-13.8" font-family="Times,serif" font-size="14.00" fill="#000000">{x,y,¬x,¬y}</text>
</g>
<!-- xynx&#45;&gt;xynxy -->
<g id="edge30" class="edge">
<title>xynx-&gt;xynxy</title>
<path fill="none" stroke="#000000" d="M119.5521,-71.8314C136.2048,-62.5368 156.6585,-51.1208 174.4385,-41.1971"/>
<polygon fill="#000000" stroke="#000000" points="176.4321,-44.0927 183.4583,-36.1628 173.0205,-37.9803 176.4321,-44.0927"/>
</g>
<!-- xyny&#45;&gt;xynxy -->
<g id="edge29" class="edge">
<title>xyny-&gt;xynxy</title>
<path fill="none" stroke="#000000" d="M183.1031,-71.8314C188.0674,-63.7079 194.0222,-53.9637 199.4928,-45.0118"/>
<polygon fill="#000000" stroke="#000000" points="202.5194,-46.7712 204.7474,-36.4133 196.5464,-43.121 202.5194,-46.7712"/>
</g>
<!-- xnxy&#45;&gt;xynxy -->
<g id="edge31" class="edge">
<title>xnxy-&gt;xynxy</title>
<path fill="none" stroke="#000000" d="M249.6446,-71.8314C244.5674,-63.7079 238.4773,-53.9637 232.8824,-45.0118"/>
<polygon fill="#000000" stroke="#000000" points="235.7763,-43.0383 227.5083,-36.4133 229.8403,-46.7483 235.7763,-43.0383"/>
</g>
<!-- ynxy&#45;&gt;xynxy -->
<g id="edge32" class="edge">
<title>ynxy-&gt;xynxy</title>
<path fill="none" stroke="#000000" d="M319.9244,-71.8314C301.7339,-62.4089 279.3342,-50.8062 259.994,-40.7883"/>
<polygon fill="#000000" stroke="#000000" points="261.5537,-37.6545 251.0643,-36.1628 258.334,-43.8701 261.5537,-37.6545"/>
</g>
</g>
</svg>